<?xml version="1.0" encoding="UTF-8"?>
<svg width="900px" height="900px" viewBox="0 0 900 900" version="1.1" xmlns="http://www.w3.org/2000/svg" xmlns:xlink="http://www.w3.org/1999/xlink">
    <!-- Generator: sketchtool 47.1 (45422) - http://www.bohemiancoding.com/sketch -->
    <title>C9F29215-CEC8-4023-9298-AF6596854498</title>
    <desc>Created with sketchtool.</desc>
    <defs></defs>
    <g id="Symbols" stroke="none" stroke-width="1" fill="none" fill-rule="evenodd">
        <g id="636">
            <g transform="translate(0.000000, 99.000000)">
                <path d="M127.292,669.958 C127.292,669.958 124.68,658.54 128.295,657.961 C130.017,657.685 130.934,660.685 133.12,661.243 C137.301,662.311 140.5,667.437 140.5,667.437 L127.292,669.958" id="Fill-1" fill="#EC965D"></path>
                <path d="M328.493,343.044 C328.493,338.741 320.66,335.253 310.999,335.253 C301.337,335.253 293.505,338.741 293.505,343.044 C293.505,347.347 301.337,350.835 310.999,350.835 C320.66,350.835 328.493,347.347 328.493,343.044" id="Fill-2" fill="#202128"></path>
                <path d="M673.584,797.42 L4.35,797.42 C2.158,797.42 0.382,795.644 0.382,793.452 C0.382,791.261 2.158,789.484 4.35,789.484 L673.584,789.484 C675.775,789.484 677.552,791.261 677.552,793.452 C677.552,795.644 675.775,797.42 673.584,797.42" id="Fill-3" fill-opacity="0.206946332" fill="#FFFFFF"></path>
                <path d="M538.483,592.807 L537.645,591.912 C534.282,588.322 528.646,588.138 525.058,591.5 L519.534,596.674 C518.257,597.871 516.25,597.805 515.053,596.528 L515.009,596.481 C513.812,595.203 511.806,595.137 510.527,596.334 L499.261,606.888 C497.982,608.085 497.917,610.092 499.114,611.37 L508.253,621.125 L518.519,611.509 L517.376,610.289 L521.084,609.106 L538.483,592.807" id="Fill-4" fill="#58281F"></path>
                <path d="M516.972,597.405 L481.604,561.873 C479.354,559.611 476.294,558.34 473.103,558.34 L459.747,558.34 L459.747,580.928 L466.232,580.928 C467.717,580.928 469.141,581.517 470.189,582.567 L501,613.376 L516.972,597.405" id="Fill-5" fill="#202128"></path>
                <path d="M116.659,797.42 L37.52,797.42 C31.189,797.42 26.059,792.289 26.059,785.96 L26.059,704.931 C26.059,698.601 31.189,693.47 37.52,693.47 L116.659,693.47 C122.989,693.47 128.12,698.601 128.12,704.931 L128.12,785.96 C128.12,792.289 122.989,797.42 116.659,797.42" id="Fill-6" fill="#B2252A"></path>
                <path d="M240.209,668.898 L161.069,668.898 C154.739,668.898 149.608,663.767 149.608,657.438 L149.608,548.73 C149.608,542.4 154.739,537.269 161.069,537.269 L240.209,537.269 C246.539,537.269 251.67,542.4 251.67,548.73 L251.67,657.438 C251.67,663.767 246.539,668.898 240.209,668.898" id="Fill-7" fill="#CE492B"></path>
                <path d="M367.975,797.42 L288.834,797.42 C282.504,797.42 277.373,792.289 277.373,785.96 L277.373,509.26 C277.373,502.93 282.504,497.799 288.834,497.799 L367.975,497.799 C374.304,497.799 379.435,502.93 379.435,509.26 L379.435,785.96 C379.435,792.289 374.304,797.42 367.975,797.42" id="Fill-8" fill="#F2AF2A"></path>
                <path d="M507.39,797.42 L428.249,797.42 C421.92,797.42 416.789,792.289 416.789,785.96 L416.789,589.974 C416.789,583.645 421.92,578.513 428.249,578.513 L507.39,578.513 C513.719,578.513 518.851,583.645 518.851,589.974 L518.851,785.96 C518.851,792.289 513.719,797.42 507.39,797.42" id="Fill-9" fill="#D19330"></path>
                <path d="M100.175,797.42 L21.034,797.42 C14.705,797.42 9.574,792.289 9.574,785.96 L9.574,704.931 C9.574,698.601 14.705,693.47 21.034,693.47 L100.175,693.47 C106.504,693.47 111.635,698.601 111.635,704.931 L111.635,785.96 C111.635,792.289 106.504,797.42 100.175,797.42" id="Fill-10" fill="#CB242A"></path>
                <path d="M235.18,548.73 L235.18,657.44 C235.18,663.77 230.05,668.9 223.72,668.9 L144.58,668.9 C138.44,668.9 133.43,664.08 133.13,658.01 C133.12,657.82 133.12,657.63 133.12,657.44 L133.12,548.73 C133.12,542.4 138.25,537.27 144.58,537.27 L223.72,537.27 C230.05,537.27 235.18,542.4 235.18,548.73" id="Fill-11" fill="#E0562A"></path>
                <path d="M146.25,666.5 L144.78,668.9 L144.58,668.9 C138.44,668.9 133.43,664.08 133.13,658.01 L146.25,666.5" id="Fill-12" fill="#AF402B"></path>
                <path d="M235.18,627.38 L235.18,657.44 C235.18,663.77 230.05,668.9 223.72,668.9 L199.72,668.9 L215.63,623.52 C224.13,624.53 226.15,624.05 226.15,624.05 C226.15,624.05 231.33,622.27 235.18,627.38" id="Fill-13" fill="#AF402B"></path>
                <path d="M351.489,797.42 L272.349,797.42 C266.02,797.42 260.889,792.289 260.889,785.96 L260.889,509.26 C260.889,502.93 266.02,497.799 272.349,497.799 L351.489,497.799 C357.818,497.799 362.95,502.93 362.95,509.26 L362.95,785.96 C362.95,792.289 357.818,797.42 351.489,797.42" id="Fill-14" fill="#F9D021"></path>
                <path d="M490.905,797.42 L411.765,797.42 C405.435,797.42 400.304,792.289 400.304,785.96 L400.304,589.974 C400.304,583.645 405.435,578.513 411.765,578.513 L490.905,578.513 C497.234,578.513 502.365,583.645 502.365,589.974 L502.365,785.96 C502.365,792.289 497.234,797.42 490.905,797.42" id="Fill-15" fill="#F2AF2A"></path>
                <path d="M106.718,496.903 L104.16,493.149 C103.718,492.477 104.277,485.477 101.396,487.462 C98.97,489.133 99.313,493.15 101.747,496.612 C102.188,497.239 102.064,498.101 101.455,498.567 L106.718,496.903" id="Fill-16" fill="#F1AC78"></path>
                <path d="M101.455,498.567 L101.426,498.589 C100.882,499.006 100.128,498.962 99.614,498.51 C98.036,497.125 95.737,496.983 94.753,499.014 C93.587,501.419 98.195,500.786 98.983,502.891 C100.118,505.919 103.734,506.371 105.02,506.12 L106.612,512.265 L110.691,510.011 L108.896,504.631 C110.734,503.858 111.381,494.765 109.107,494.52 C108.034,494.404 108.375,495.936 106.718,496.903 L101.455,498.567" id="Fill-17" fill="#EC965D"></path>
                <path d="M107.413,493.822 C106.255,491.556 98.935,494.129 99.097,498.501 C99.259,502.873 102.864,503.16 103.554,500.591 C104.244,498.021 103.362,497.781 103.362,497.781 C103.362,497.781 108.332,495.62 107.413,493.822" id="Fill-18" fill="#F1AC78"></path>
                <path d="M109.666,494.91 C108.942,494.03 105.418,493.488 103.636,496.209 C101.854,498.93 102.835,502.213 104.934,501.531 C107.226,500.786 107.023,497.794 107.023,497.794 C107.023,497.794 111.113,496.672 109.666,494.91" id="Fill-19" fill="#F1AC78"></path>
                <path d="M103.283,509.696 L113.043,505.35" id="Stroke-20" stroke="#FFFFFE" stroke-width="5.32" fill="#D8D8D8"></path>
                <path d="M61.752,550.744 C61.752,550.744 89.055,553.373 105.016,543.799 C120.976,534.226 108.208,507.036 108.208,507.036" id="Stroke-21" stroke="#202128" stroke-width="13.3" fill="#D8D8D8"></path>
                <path d="M80.269,553.66 C80.269,558.175 72.041,561.836 61.892,561.836 C51.742,561.836 43.514,558.175 43.514,553.66 C43.514,549.144 51.742,545.483 61.892,545.483 C72.041,545.483 80.269,549.144 80.269,553.66" id="Fill-22" fill="#2C2C37"></path>
                <path d="M25.954,693.826 L25.954,692.898 C25.954,689.178 28.971,686.161 32.691,686.161 L38.416,686.161 C39.74,686.161 40.814,685.087 40.814,683.763 L40.814,683.714 C40.814,682.389 41.889,681.316 43.213,681.316 L54.892,681.316 C56.216,681.316 57.29,682.389 57.29,683.714 L57.29,693.826 L46.649,693.826 L46.649,692.562 L43.989,693.826 L25.954,693.826" id="Fill-23" fill="#58281F"></path>
                <path d="M98.07,693.64 L98.07,692.712 C98.07,688.991 95.054,685.975 91.333,685.975 L85.608,685.975 C84.284,685.975 83.21,684.901 83.21,683.576 L83.21,683.528 C83.21,682.203 82.136,681.129 80.812,681.129 L69.133,681.129 C67.809,681.129 66.734,682.203 66.734,683.528 L66.734,693.64 L77.375,693.64 L77.375,692.376 L80.035,693.64 L98.07,693.64" id="Fill-24" fill="#58281F"></path>
                <polyline id="Fill-25" fill="#202128" points="57.978 682.697 58.007 604.481 65.676 604.481 65.881 682.697 83.482 682.424 80.336 588.261 43.381 588.261 40.542 682.424 57.978 682.697"></polyline>
                <polyline id="Fill-26" fill="#131513" points="43.386 590.401 80.341 590.401 81.563 624.964 65.729 624.964 65.681 606.62 58.012 606.62 57.999 624.964 42.274 624.964 43.386 590.401"></polyline>
                <path d="M61.843,544.863 C36.74,544.863 39.854,560.179 39.854,560.179 L39.854,619.878 L83.626,619.878 L83.626,560.241 C83.626,560.241 86.945,544.863 61.843,544.863" id="Fill-27" fill="#202128"></path>
                <path d="M41.27,600.448 C41.27,600.448 43.297,600.769 45.786,601.683 C48.252,602.589 50.154,599.468 45.866,597.981 C44.495,597.505 43.337,597.154 42.33,596.959 C43.928,596.051 46.313,594.478 45.971,593.345 C45.104,590.478 41.857,592.214 39.58,594.544 C37.882,596.281 36.879,598.943 36.288,600.505 C36.13,600.858 35.973,601.231 35.815,601.642 C33.551,607.568 42.069,610.925 44.116,609.497 C47.306,607.274 39.503,604.789 39.503,604.789 C39.503,604.789 45.21,608.124 46.779,605.666 C48.015,603.732 43.146,601.299 41.27,600.448" id="Fill-28" fill="#F1AC78"></path>
                <path d="M37.979,592.345 L32.735,601.653" id="Stroke-29" stroke="#FFFFFE" stroke-width="5.32" fill="#D8D8D8"></path>
                <path d="M32.542,603.026 C31.589,602.534 9.23,590.758 11.697,570.971 C14.256,550.452 45.173,542.782 65.565,545.325 L63.92,558.523 C55.753,557.505 45.774,558.648 37.877,561.508 C34.225,562.829 25.65,566.558 24.896,572.617 C23.599,583.018 38.506,591.136 38.657,591.215 L32.542,603.026" id="Fill-30" fill="#202128"></path>
                <polyline id="Fill-31" fill="#FFFFFE" points="50.676 547.163 61.843 579.853 73.107 547.163 50.676 547.163"></polyline>
                <path d="M73.055,550.775 L72.935,550.717 C65.917,547.339 57.742,547.34 50.726,550.721 L50.614,550.775 L53.692,559.709 L61.834,553.684 L69.976,559.709 L73.055,550.775" id="Fill-32" fill="#A59A95"></path>
                <polyline id="Fill-33" fill="#0E0D0C" points="64.139 573.164 61.833 579.855 59.548 573.163 61.882 547.165 64.139 573.164"></polyline>
                <path d="M61.823,556.464 L61.862,556.464 C62.999,556.464 63.999,555.716 64.321,554.626 L65.599,550.299 C66.084,548.656 64.853,547.009 63.14,547.009 L60.546,547.009 C58.833,547.009 57.603,548.656 58.087,550.299 L59.365,554.626 C59.687,555.716 60.688,556.464 61.823,556.464" id="Fill-34" fill="#0E0D0C"></path>
                <path d="M73.106,547.163 L72.987,547.105 C65.97,543.727 57.795,543.728 50.778,547.109 L50.666,547.163 L53.745,556.097 L61.887,550.738 L70.028,556.097 L73.106,547.163" id="Fill-35" fill="#FFFFFE"></path>
                <polyline id="Fill-36" fill="#2C2C37" points="61.833 579.855 73.107 545.117 81.197 548.668 76.308 555.196 73.107 556.446 74.453 560.757 61.833 579.855"></polyline>
                <polyline id="Fill-37" fill="#2C2C37" points="61.833 579.856 50.56 545.118 42.47 548.195 47.359 555.197 50.56 556.447 49.214 560.758 61.833 579.856"></polyline>
                <path d="M61.178,581.449 C61.178,593.904 61.178,606.359 61.178,618.814 C61.178,619.669 62.508,619.671 62.508,618.814 C62.508,606.359 62.508,593.904 62.508,581.449 C62.508,580.593 61.178,580.591 61.178,581.449" id="Fill-38" fill="#2C2C37"></path>
                <path d="M35.898,527.582 C35.898,527.582 17.464,496.573 35.923,488.14 C40.271,471.444 62.981,475.658 68.531,477.227 C74.08,478.796 77.369,475.947 77.369,475.947 C79.227,477.626 79.407,481.15 79.407,481.15 L83.697,475.539 C89.386,479.1 92.549,488.267 84.569,501.323 L35.898,527.582" id="Fill-39" fill="#663E26"></path>
                <path d="M67.761,545.132 C67.761,548.059 65.389,550.431 62.463,550.431 L61.138,550.431 C58.212,550.431 55.84,548.059 55.84,545.132 L55.84,536.144 C55.84,533.217 58.212,530.845 61.138,530.845 L62.463,530.845 C65.389,530.845 67.761,533.217 67.761,536.144 L67.761,545.132" id="Fill-40" fill="#EC965D"></path>
                <path d="M65.585,486.924 L50.523,488.143 C40.747,488.935 33.492,497.867 34.32,508.095 L34.678,512.499 L34.599,512.583 C34.29,512.564 33.978,512.559 33.661,512.585 L33.485,512.599 C29.636,512.911 26.779,516.428 27.105,520.455 L27.117,520.602 C27.443,524.626 30.825,527.635 34.672,527.324 L34.854,527.309 C35.177,527.283 35.49,527.227 35.798,527.155 L35.888,527.222 C37.051,537.038 45.429,544.276 54.93,543.507 L70.067,542.281 C79.844,541.49 87.099,532.557 86.271,522.33 L84.787,504.009 C83.959,493.782 75.362,486.132 65.585,486.924" id="Fill-41" fill="#FFCCA6"></path>
                <path d="M40.953,517.913 C40.248,509.198 37.54,498.381 44.739,491.834 C48.385,488.519 52.679,488.186 57.241,487.816 C60.958,487.515 64.669,487.147 68.39,486.914 C72.404,486.662 71.907,480.26 67.866,480.451 C63.792,480.645 59.734,481.11 55.669,481.439 C49.865,481.909 44.603,483.157 40.185,487.428 C35.268,492.18 33.198,498.924 33.757,505.833 C34.097,510.026 34.437,514.219 34.775,518.413 C35.113,522.58 41.291,522.08 40.953,517.913" id="Fill-42" fill="#663E26"></path>
                <path d="M57.964,515.331 C58.068,516.617 57.398,517.721 56.467,517.797 C55.536,517.872 54.696,516.89 54.593,515.604 C54.488,514.318 55.158,513.214 56.09,513.139 C57.021,513.063 57.86,514.045 57.964,515.331" id="Fill-43" fill="#131513"></path>
                <path d="M76.914,513.797 C77.018,515.083 76.348,516.187 75.416,516.262 C74.485,516.338 73.646,515.356 73.542,514.07 C73.438,512.784 74.108,511.68 75.039,511.605 C75.971,511.529 76.81,512.511 76.914,513.797" id="Fill-44" fill="#131513"></path>
                <path d="M78.61,505.33 C76.147,502.578 72.296,502.729 70.313,505.916 C69.863,506.637 71.002,507.298 71.448,506.58 C72.998,504.09 75.795,504.154 77.68,506.26 C78.246,506.893 79.174,505.96 78.61,505.33" id="Fill-45" fill="#663E26"></path>
                <path d="M52.518,508.248 C54.042,505.845 56.788,505.459 58.728,507.659 C59.289,508.296 60.217,507.362 59.658,506.729 C57.152,503.886 53.341,504.494 51.382,507.584 C50.927,508.301 52.065,508.962 52.518,508.248" id="Fill-46" fill="#663E26"></path>
                <path d="M82.978,481.662 C82.978,481.662 84.055,491.449 64.528,493.03 C45.003,494.611 37.759,494.139 39.207,512.031 C39.207,512.031 33.205,486.083 50.058,482.254 C66.91,478.425 73.694,486.267 82.978,481.662" id="Fill-47" fill="#663E26"></path>
                <path d="M72.461,529.503 C72.461,531.407 70.917,532.95 69.014,532.95 C67.109,532.95 65.565,531.407 65.565,529.503 C65.565,527.598 67.109,526.055 69.014,526.055 C70.917,526.055 72.461,527.598 72.461,529.503" id="Fill-48" fill="#281412"></path>
                <path d="M122.896,425.912 C122.896,416.113 114.646,408.242 104.714,408.865 C96.258,409.395 89.361,416.243 88.776,424.695 C88.395,430.203 90.627,435.2 94.355,438.575 C95.652,439.749 96.511,441.329 96.668,443.071 L96.697,443.405 C96.697,445.541 97.706,453.055 105.814,453.055 C113.924,453.055 114.933,445.541 114.933,443.405 L114.975,442.933 C115.124,441.27 115.947,439.762 117.192,438.649 C120.692,435.522 122.896,430.975 122.896,425.912" id="Fill-49" fill="#FADA56"></path>
                <path d="M100.349,431.731 L103.896,447 L107.734,447 L111.281,431.731 C111.853,429.757 99.777,429.757 100.349,431.731 Z" id="Stroke-50" stroke="#FFFFFE"></path>
                <path d="M105.913,459.974 L105.717,459.974 C100.34,459.974 95.981,455.616 95.981,450.239 L95.981,446.518 L115.648,446.518 L115.648,450.239 C115.648,455.616 111.29,459.974 105.913,459.974" id="Fill-51" fill="#95948C"></path>
                <path d="M95.981,447.324 C102.537,447.324 109.093,447.324 115.648,447.324 C116.686,447.324 116.688,445.712 115.648,445.712 C109.093,445.712 102.537,445.712 95.981,445.712 C94.944,445.712 94.942,447.324 95.981,447.324" id="Fill-52" fill="#F5F3E4"></path>
                <path d="M95.981,450.547 C102.537,450.547 109.093,450.547 115.648,450.547 C116.686,450.547 116.688,448.935 115.648,448.935 C109.093,448.935 102.537,448.935 95.981,448.935 C94.944,448.935 94.942,450.547 95.981,450.547" id="Fill-53" fill="#F5F3E4"></path>
                <path d="M89.897,405.483 C89.182,404.767 88.466,404.051 87.751,403.336 C86.824,402.41 85.129,402.341 84.215,403.336 C83.299,404.334 83.227,405.883 84.215,406.871 C84.931,407.587 85.646,408.303 86.362,409.018 C87.288,409.944 88.984,410.013 89.897,409.018 C90.813,408.02 90.886,406.471 89.897,405.483" id="Fill-54" fill="#FADA56"></path>
                <path d="M82.43,415.181 C78.991,413.802 75.552,412.424 72.113,411.045 C69.127,409.848 67.829,414.682 70.784,415.866 C74.223,417.245 77.662,418.623 81.101,420.002 C84.087,421.199 85.385,416.365 82.43,415.181" id="Fill-55" fill="#FADA56"></path>
                <path d="M125.232,409.018 C126.283,407.967 127.334,406.916 128.385,405.865 C129.311,404.939 129.38,403.243 128.385,402.329 C127.387,401.413 125.838,401.341 124.85,402.329 C123.799,403.381 122.747,404.432 121.696,405.483 C120.771,406.409 120.701,408.105 121.696,409.018 C122.694,409.934 124.244,410.006 125.232,409.018" id="Fill-56" fill="#FADA56"></path>
                <path d="M130.607,420.002 C134.101,418.84 137.595,417.677 141.088,416.515 C144.127,415.504 142.824,410.674 139.759,411.694 C136.266,412.856 132.771,414.018 129.278,415.181 C126.24,416.192 127.542,421.022 130.607,420.002" id="Fill-57" fill="#FADA56"></path>
                <path d="M120.95,441.866 C121.689,442.604 122.428,443.343 123.167,444.082 C123.688,444.603 124.496,443.795 123.976,443.274 C123.236,442.535 122.498,441.796 121.759,441.057 C121.238,440.536 120.43,441.345 120.95,441.866" id="Fill-58" fill="#FFFFFE"></path>
                <path d="M129.359,436.828 C131.396,437.506 133.434,438.184 135.471,438.862 C138.531,439.88 139.844,435.053 136.801,434.04 C134.763,433.362 132.726,432.685 130.688,432.007 C127.628,430.989 126.315,435.816 129.359,436.828" id="Fill-59" fill="#FADA56"></path>
                <path d="M86.557,442.991 C85.506,444.042 84.455,445.093 83.404,446.144 C82.478,447.07 82.409,448.766 83.404,449.679 C84.402,450.595 85.951,450.667 86.939,449.679 C87.99,448.628 89.041,447.577 90.093,446.526 C91.019,445.6 91.088,443.904 90.093,442.991 C89.095,442.075 87.545,442.003 86.557,442.991" id="Fill-60" fill="#FADA56"></path>
                <path d="M81.182,432.007 C78.605,432.864 76.029,433.721 73.453,434.578 C70.415,435.589 71.717,440.419 74.782,439.399 C77.358,438.542 79.935,437.685 82.511,436.828 C85.549,435.817 84.247,430.987 81.182,432.007" id="Fill-61" fill="#FADA56"></path>
                <path d="M108.297,401.923 C108.297,398.247 108.297,394.57 108.297,390.894 C108.297,387.677 103.297,387.671 103.297,390.894 C103.297,394.57 103.297,398.247 103.297,401.923 C103.297,405.14 108.297,405.145 108.297,401.923" id="Fill-62" fill="#FADA56"></path>
                <path d="M200.016,781.175 C200.016,781.175 198.468,774.023 211.298,768.439 L216.853,773.924 L208.563,784.638 L200.016,781.175" id="Fill-63" fill="#BDB2AC"></path>
                <path d="M141.715,781.639 C141.715,781.639 141.715,774.322 155.436,771.578 L159.704,778.113 L149.338,786.832 L141.715,781.639" id="Fill-64" fill="#BDB2AC"></path>
                <path d="M144.25,792.523 L143.443,793.987 L133.562,788.42 L140.011,776.711 C140.855,775.177 142.783,774.619 144.317,775.463 L155.4,781.692 C156.935,782.536 157.493,784.465 156.648,785.999 L156.617,786.055 C155.772,787.589 156.331,789.517 157.865,790.362 L161.203,790.616 C166.121,790.616 170.108,794.603 170.108,799.522 L170.108,800.749 L161.772,800.749 C155.037,800.749 148.646,797.767 144.318,792.605 L144.25,792.523" id="Fill-65" fill="#58281F"></path>
                <path d="M239.218,794.651 L239.218,793.424 C239.218,788.506 235.23,784.518 230.313,784.518 L222.744,784.518 C220.993,784.518 219.573,783.099 219.573,781.348 L219.573,781.284 C219.573,779.532 218.154,778.113 216.403,778.113 L200.966,778.113 C199.214,778.113 197.795,779.532 197.795,781.284 L197.795,794.651 L211.861,794.651 L211.861,792.98 L215.377,794.651 L239.218,794.651" id="Fill-66" fill="#58281F"></path>
                <path d="M168.901,675.057 C172.997,673.058 169.558,674.724 168.628,675.148 C166.75,676.006 164.844,676.8 162.925,677.561 C160.985,678.33 159.012,679.004 157.016,679.611 C157.067,679.595 157.582,681.301 159.281,680.976 C158.573,681.111 155.387,680.972 157.951,681.294 C158.398,681.351 161.146,683.178 159.605,681.963 C158.946,681.444 158.355,680.831 157.763,680.24 C156.389,678.869 155.787,678.054 154.236,676.046 C152.662,674.008 151.157,671.907 149.728,669.764 C143.178,659.947 127.865,669.958 134.421,679.784 C139.282,687.07 145.34,696.707 154.213,699.203 C159.643,700.73 162.751,697.148 167.774,695.28 C171.585,693.864 175.271,692.146 178.922,690.364 C183.41,688.172 184.038,681.479 181.564,677.701 C178.58,673.141 173.378,672.872 168.901,675.057" id="Fill-67" fill="#202128"></path>
                <path d="M147.935,667.15 C147.791,674.603 129.25,678.768 125.5,668.667 C124.192,665.143 123.74,661.667 126.38,660.18 C129.601,658.366 127.459,667.625 129.896,667.21 C129.896,667.21 128.149,657.702 130.334,656.458 C134.156,654.281 133.792,660.292 134.922,663.091 L135.875,666.812 C135.875,666.812 148.012,663.152 147.935,667.15" id="Fill-68" fill="#F1AC78"></path>
                <path d="M223.914,739.65 C213.484,732.154 196.078,725.933 192.281,724.624 C191.063,724.043 189.704,723.708 188.264,723.708 L158.586,723.708 C153.422,723.708 149.236,727.894 149.236,733.058 C149.236,735.93 150.534,738.498 152.572,740.213 C157.538,748.35 162.481,757.374 163.762,761.165 C161.419,764.261 147.003,771.108 147.003,771.108 C145.177,782.733 156.342,786.832 156.342,786.832 C156.638,786.712 163.657,783.841 170.755,779.637 C178.359,775.133 182.361,771.627 182.287,761.451 C182.26,757.608 179.824,751.221 175.053,742.409 L187.718,742.409 C193.391,744.429 204.372,748.776 211.451,753.299 L201.472,772.914 C206.659,784.638 219.084,779.606 219.084,779.606 L227.731,761.919 C232.7,754.725 230.987,744.736 223.914,739.65" id="Fill-69" fill="#202128"></path>
                <path d="M211.208,752.954 L196.658,731.003 L152.148,726.349 C150.453,728.041 149.403,730.381 149.403,732.966 C149.403,735.839 150.701,738.406 152.74,740.121 C155.165,744.094 159.571,751.959 159.571,751.959 C169.728,743.606 178.693,749.539 178.693,749.539 L174.978,742.317 L187.886,742.317 C193.452,744.299 204.122,748.523 211.208,752.954" id="Fill-70" fill="#131513"></path>
                <path d="M196.733,731.095 L214.191,687.571 C210.854,675.092 194.359,673.59 182.903,674.129 C176.203,674.444 170.302,678.628 167.823,684.861 L150.492,728.455 C150.492,728.455 173.799,750.143 196.733,731.095" id="Fill-71" fill="#202128"></path>
                <path d="M203.391,691.908 C211.245,694.175 219.1,696.442 226.954,698.709 C231.77,700.098 236.813,697.019 238.206,692.32 C239.639,687.485 241.071,682.65 242.505,677.815 C245.857,666.504 228.207,661.672 224.864,672.952 C223.431,677.787 221.998,682.622 220.565,687.456 C224.315,685.327 228.066,683.197 231.817,681.068 C223.963,678.801 216.108,676.534 208.254,674.268 C196.922,670.997 192.083,688.645 203.391,691.908" id="Fill-72" fill="#202128"></path>
                <path d="M225.473,671.247 C229.453,677.55 247.497,672.721 248.481,659.831 C248.736,656.494 248.516,650.837 243.792,651.688 C240.154,652.343 243.812,660.17 240.938,661.964 C240.938,661.964 240.205,652.622 235.847,653.14 C231.487,653.659 233.33,659.167 234.507,661.039 L234.572,665.203 C234.572,665.203 223.338,667.866 225.473,671.247" id="Fill-73" fill="#F1AC78"></path>
                <path d="M217.874,680.759 C217.874,686.517 205.98,691.185 191.309,691.185 C176.637,691.185 164.742,686.517 164.742,680.759 C164.742,675.001 176.637,670.333 191.309,670.333 C205.98,670.333 217.874,675.001 217.874,680.759" id="Fill-74" fill="#202128"></path>
                <polyline id="Fill-75" fill="#FFFFFE" points="185.371 675.266 189.778 708.942 207.717 677.222 185.371 675.266"></polyline>
                <path d="M206.922,680.831 L206.814,680.762 C200.518,676.771 192.374,676.06 184.69,678.83 L184.567,678.874 L185.798,688.081 L195.146,682.763 L202.02,689.5 L206.922,680.831" id="Fill-76" fill="#A59A95"></path>
                <polyline id="Fill-77" fill="#0E0D0C" points="193.44 702.451 189.769 708.944 188.866 702.05 196.534 676.245 193.44 702.451"></polyline>
                <path d="M194.565,685.542 L194.604,685.546 C195.736,685.645 196.887,684.984 197.431,683.921 L199.593,679.704 C200.414,678.103 199.525,676.348 197.819,676.199 L195.235,675.972 C193.529,675.823 191.964,677.364 192.109,679.049 L192.493,683.489 C192.59,684.608 193.434,685.443 194.565,685.542" id="Fill-78" fill="#0E0D0C"></path>
                <path d="M207.717,677.222 L207.609,677.153 C201.313,673.162 193.169,672.451 185.484,675.221 L185.361,675.265 L186.593,684.472 L195.805,679.82 L202.814,685.891 L207.717,677.222" id="Fill-79" fill="#FFFFFE"></path>
                <polyline id="Fill-80" fill="#2C2C37" points="189.769 708.944 208.137 675.175 215.467 679.433 209.255 685.537 205.81 686.508 206.265 690.939 189.769 708.944"></polyline>
                <polyline id="Fill-81" fill="#2C2C37" points="189.769 708.945 185.676 673.211 176.983 675.583 180.416 683.014 183.348 684.544 181.121 688.74 189.769 708.945"></polyline>
                <path d="M174.235,661.243 C174.235,661.243 161.075,628.78 180.028,623.385 C186.645,607.994 207.829,615.362 212.927,617.679 C218.023,619.997 221.598,617.744 221.598,617.744 C223.135,619.628 222.793,623.036 222.793,623.036 L227.732,618.278 C232.672,622.528 234.367,631.79 224.798,643.156 L174.235,661.243" id="Fill-82" fill="#663E26"></path>
                <path d="M208.68,626.557 L194.044,625.524 C184.543,624.854 176.272,632.367 175.571,642.306 L175.27,646.586 L175.181,646.655 C174.888,646.591 174.589,646.542 174.281,646.52 L174.11,646.508 C170.369,646.244 167.113,649.202 166.837,653.115 L166.827,653.258 C166.551,657.169 169.357,660.552 173.096,660.816 L173.271,660.829 C173.586,660.851 173.896,660.843 174.201,660.819 L174.277,660.897 C173.958,670.489 180.941,678.663 190.175,679.315 L204.885,680.352 C214.386,681.023 222.656,673.509 223.357,663.571 L224.613,645.766 C225.314,635.828 218.181,627.227 208.68,626.557" id="Fill-83" fill="#FFCCA6"></path>
                <path d="M180.502,652.701 C181.1,644.233 180.082,633.453 187.951,628.221 C191.936,625.572 196.106,625.88 200.54,626.193 C204.151,626.448 207.768,626.637 211.374,626.958 C215.264,627.303 215.724,621.085 211.816,620.678 C207.877,620.267 203.915,620.12 199.964,619.841 C194.323,619.443 189.089,619.872 184.224,623.325 C178.809,627.167 175.835,633.338 175.361,640.052 C175.073,644.127 174.786,648.202 174.499,652.277 C174.213,656.327 180.216,656.751 180.502,652.701" id="Fill-84" fill="#663E26"></path>
                <path d="M199.055,653.634 C198.966,654.884 198.161,655.846 197.256,655.782 C196.352,655.718 195.689,654.653 195.777,653.403 C195.865,652.153 196.671,651.191 197.575,651.255 C198.48,651.319 199.143,652.384 199.055,653.634" id="Fill-85" fill="#131513"></path>
                <path d="M215.624,654.011 C215.535,655.261 214.73,656.222 213.825,656.158 C212.921,656.094 212.259,655.029 212.347,653.78 C212.436,652.53 213.24,651.568 214.146,651.632 C215.05,651.696 215.712,652.761 215.624,654.011" id="Fill-86" fill="#131513"></path>
                <path d="M226.146,624.05 C226.146,624.05 225.748,633.602 206.772,632.264 C187.798,630.925 180.913,629.412 179.687,646.8 C179.687,646.8 177.72,621.013 194.458,619.803 C211.195,618.593 216.561,627.113 226.146,624.05" id="Fill-87" fill="#663E26"></path>
                <path d="M200.938,651.363 C198.677,650.566 196.416,649.769 194.156,648.972 C193.034,648.577 192.551,650.359 193.665,650.752 C195.926,651.549 198.187,652.346 200.447,653.143 C201.569,653.538 202.052,651.756 200.938,651.363" id="Fill-88" fill="#663E26"></path>
                <path d="M211.875,653.769 C214.177,652.995 216.479,652.22 218.781,651.446 C219.9,651.07 219.42,649.287 218.29,649.667 C215.988,650.441 213.687,651.215 211.384,651.99 C210.265,652.366 210.744,654.149 211.875,653.769" id="Fill-89" fill="#663E26"></path>
                <path d="M189.138,708.765 C185.749,718.698 182.361,728.631 178.974,738.563 C178.696,739.375 179.981,739.724 180.256,738.917 C183.645,728.984 187.032,719.052 190.42,709.119 C190.696,708.307 189.412,707.959 189.138,708.765" id="Fill-90" fill="#2C2C37"></path>
                <path d="M197.217,669.475 C202.258,669.475 207.298,669.475 212.339,669.475 C213.081,669.475 213.082,668.322 212.339,668.322 C207.298,668.322 202.258,668.322 197.217,668.322 C196.475,668.322 196.474,669.475 197.217,669.475" id="Fill-91" fill="#663E26"></path>
                <path d="M292.049,410.319 L295.185,413.431 C295.556,413.8 296.189,413.535 296.185,413.012 C296.152,409.892 295.704,402.323 292.28,398.325 L265.723,397.132 C261.954,400.806 260.829,408.305 260.518,411.409 C260.465,411.93 261.072,412.251 261.476,411.917 L264.878,409.099 C261.642,423.051 273.619,441.306 277.037,441.459 C280.455,441.613 294.021,424.506 292.049,410.319" id="Fill-92" fill="#F8CA23"></path>
                <path d="M284.199,405.117 C283.695,416.328 277.769,425.168 277.769,425.168 C277.769,425.168 272.658,415.832 273.162,404.621 C273.666,393.41 276.545,384.432 279.593,384.569 C282.641,384.706 284.702,393.906 284.199,405.117" id="Fill-93" fill="#FBDE62"></path>
                <path d="M300.702,395.678 C302.267,394.248 303.144,393.446 304.708,392.016 L306.322,356.095 C306.687,347.979 300.403,341.104 292.287,340.74 L291.99,340.726 C283.874,340.362 276.999,346.646 276.635,354.762 L275.041,390.221 C276.637,391.966 277.549,392.964 279.145,394.709 L300.702,395.678" id="Fill-94" fill="#902326"></path>
                <path d="M298.24,395.567 C299.806,394.137 300.683,393.335 302.247,391.905 L303.861,355.985 C304.226,347.869 297.941,340.994 289.826,340.629 L289.529,340.616 C281.413,340.251 274.538,346.535 274.173,354.651 L272.58,390.11 C274.176,391.856 275.088,392.853 276.683,394.599 L298.24,395.567" id="Fill-95" fill="#C22C2B"></path>
                <path d="M281.101,394.797 C282.665,393.367 283.543,392.565 285.107,391.135 L286.721,355.215 C287.086,347.099 280.802,340.224 272.686,339.859 L272.389,339.846 C264.273,339.481 257.398,345.765 257.033,353.881 L255.44,389.34 C257.036,391.086 257.947,392.083 259.543,393.829 L281.101,394.797" id="Fill-96" fill="#902326"></path>
                <path d="M278.64,394.687 C280.204,393.257 281.082,392.455 282.646,391.025 L284.26,355.104 C284.624,346.988 278.341,340.113 270.225,339.748 L269.928,339.735 C261.812,339.371 254.937,345.654 254.572,353.771 L252.979,389.229 C254.575,390.975 255.486,391.972 257.082,393.718 L278.64,394.687" id="Fill-97" fill="#C22C2B"></path>
                <path d="M306.326,375.979 L253.594,373.609 C251.73,373.526 250.297,371.731 250.393,369.6 L250.396,369.522 C250.492,367.392 252.08,365.732 253.944,365.816 L306.676,368.185 C308.54,368.269 309.973,370.064 309.877,372.194 L309.874,372.272 C309.778,374.403 308.189,376.062 306.326,375.979" id="Fill-98" fill="#94885E"></path>
                <path d="M306.326,377.576 L253.594,375.207 C251.73,375.123 250.297,373.328 250.393,371.197 L250.396,371.119 C250.492,368.989 252.08,367.329 253.944,367.413 L306.676,369.782 C308.54,369.866 309.973,371.661 309.877,373.792 L309.874,373.869 C309.778,376 308.189,377.659 306.326,377.576" id="Fill-99" fill="#B3A672"></path>
                <path d="M264.379,376.864 L259.537,376.647 C258.398,376.596 257.518,375.631 257.568,374.493 L257.786,369.651 C257.837,368.513 258.802,367.631 259.939,367.682 L264.781,367.9 C265.92,367.951 266.802,368.916 266.75,370.054 L266.533,374.896 C266.481,376.034 265.518,376.915 264.379,376.864 Z" id="Stroke-100" stroke="#FBE84F" stroke-width="1.962" fill="#D8D8D8"></path>
                <path d="M297.515,398.56 L259.988,396.874 C258.337,396.8 257.059,395.402 257.133,393.751 L257.135,393.721 L300.64,395.675 L300.638,395.705 C300.563,397.356 299.165,398.634 297.515,398.56" id="Fill-101" fill="#B1C6AC"></path>
                <path d="M360.276,492.212 L361.057,491.265 C364.186,487.47 363.646,481.858 359.851,478.729 L354.012,473.915 C352.661,472.801 352.469,470.803 353.582,469.451 L353.623,469.402 C354.737,468.051 354.545,466.052 353.193,464.938 L341.282,455.118 C339.932,454.004 337.933,454.196 336.819,455.547 L328.315,465.861 L339.169,474.809 L340.231,473.52 L341.882,477.046 L360.276,492.212" id="Fill-102" fill="#58281F"></path>
                <path d="M280.617,492.631 L281.822,492.401 C286.653,491.479 289.822,486.815 288.9,481.984 L287.482,474.55 C287.154,472.83 288.282,471.17 290.002,470.841 L290.065,470.829 C291.785,470.501 292.914,468.841 292.586,467.121 L289.691,451.957 C289.363,450.237 287.703,449.108 285.983,449.436 L272.853,451.942 L275.489,465.759 L277.131,465.446 L276.148,469.212 L280.617,492.631" id="Fill-103" fill="#58281F"></path>
                <path d="M358.852,419.079 C352.949,409.963 345.271,405.503 338.348,403.387 C336.461,399.755 332.673,397.271 328.298,397.271 L297.978,397.271 C291.723,397.271 286.651,402.341 286.651,408.596 L286.651,409.751 C286.651,414.899 290.09,419.238 294.792,420.615 C298.643,423.09 304.521,428.269 303.752,436.505 C302.772,446.997 289.177,450.072 288.657,450.185 L292.425,468.682 C302.754,466.578 320.722,457.803 322.548,438.26 C323.162,431.674 321.96,425.951 319.727,421.077 L328.298,421.077 C328.563,421.077 328.826,421.068 329.087,421.049 C330.38,420.959 331.681,421.035 332.913,421.439 C336.316,422.553 340.084,424.824 343.008,429.338 C349.944,440.051 339.765,452.931 339.36,453.433 L353.931,465.434 C354.729,464.465 373.326,441.43 358.852,419.079" id="Fill-104" fill="#202128"></path>
                <path d="M319.972,421.077 L328.543,421.077 C328.809,421.077 329.071,421.068 329.332,421.049 C330.626,420.959 331.926,421.035 333.158,421.439 C336.563,422.553 340.33,424.824 343.253,429.338 C350.189,440.051 340.01,452.931 339.606,453.433 L354.176,465.434 C354.975,464.465 373.571,441.43 359.097,419.079 C353.195,409.963 345.518,405.503 338.593,403.387 C336.707,399.755 332.918,397.271 328.543,397.271 C328.543,397.271 284.821,388.897 298.223,397.271 C311.624,405.644 319.972,421.077 319.972,421.077" id="Fill-105" fill="#131513"></path>
                <path d="M327.957,397.211 L297.637,397.211 C291.91,397.211 287.189,401.465 286.43,406.983 L286.697,410.852 C286.697,410.852 306.097,420.99 338.411,407.285 L338.141,403.371 L338.007,403.327 C336.12,399.696 332.332,397.211 327.957,397.211" id="Fill-106" fill="#131513"></path>
                <path d="M323.178,353.983 C323.487,354.092 323.794,354.211 324.1,354.331 C325.533,354.889 322.507,353.629 324.36,354.436 C325.035,354.729 325.698,355.045 326.362,355.361 C329.923,357.053 333.301,359.099 336.551,361.321 C338.341,362.544 339.996,363.912 341.631,365.333 C342.753,366.309 343.808,367.358 344.86,368.407 C345.213,368.775 345.564,369.143 345.916,369.512 C347.121,371.503 347.772,370.939 347.871,367.819 C343.815,370.939 338.219,373.102 333.476,374.881 C325.2,377.986 328.782,391.367 337.155,388.226 C341.255,386.688 345.25,384.925 349.152,382.939 C352.19,381.393 355.722,379.77 357.909,377.084 C364.224,369.33 358.375,362.117 352.501,356.532 C345.301,349.686 336.266,343.946 326.856,340.638 C318.415,337.669 314.816,351.043 323.178,353.983" id="Fill-107" fill="#202128"></path>
                <path d="M333.916,373.961 L332.396,365.615 C334.73,361.659 337.14,354.3 333.057,343.461 L333.049,343.438 C332.683,342.418 333.839,341.497 334.813,341.972 L337.83,343.444 C339.398,344.208 340.567,345.633 340.937,347.338 C344.654,364.524 334.413,373.536 333.916,373.961" id="Fill-108" fill="#94885E"></path>
                <path d="M333.027,374.748 L332.395,365.562 C333.302,364.016 334.22,361.968 334.76,359.434 L341.076,360.782 C339.254,369.321 334.652,373.377 333.027,374.748" id="Fill-109" fill="#B3A672"></path>
                <path d="M337.829,404.577 C305.515,418.282 286.115,408.143 286.115,408.143 L282.583,356.934 C281.961,347.913 288.769,340.096 297.789,339.474 L316.838,338.16 C325.858,337.538 333.675,344.346 334.297,353.367 L337.829,404.577" id="Fill-110" fill="#202128"></path>
                <path d="M335.968,377.555 C335.706,377.428 335.439,377.294 335.169,377.143 C335.169,377.143 332.23,372.981 331.246,375.193 C330.394,377.111 330.936,378.63 331.975,379.798 C331.458,380.134 331.012,380.521 330.627,380.945 C327.974,381.488 325.419,381.913 325.218,383.824 C324.994,385.953 326.817,386.627 328.829,386.739 C328.848,386.92 328.876,387.1 328.906,387.278 C328.661,387.3 328.413,387.319 328.16,387.331 C323.477,387.547 326.406,392.866 330.865,392.623 C327.889,395.138 330.302,399.194 337.071,393.547 L335.968,377.555" id="Fill-111" fill="#131513"></path>
                <path d="M338.628,374.962 C338.06,374.185 336.626,373.799 335.169,372.982 C335.169,372.982 332.231,368.821 331.246,371.033 C330.22,373.341 331.202,375.08 332.658,376.314 C329.447,377.207 325.471,377.26 325.218,379.664 C324.737,384.24 333.702,382.094 333.702,382.094 C333.702,382.094 331.182,383.032 328.16,383.171 C323.477,383.387 326.406,388.706 330.865,388.463 C327.813,391.041 330.425,395.244 337.589,388.946 C340.335,386.532 340.709,383.03 340.673,380.268 C340.648,378.388 339.863,376.067 338.628,374.962" id="Fill-112" fill="#F1AC78"></path>
                <path d="M305.448,389.223 C305.274,387.562 303.322,387.024 301.074,386.555 C300.585,385.846 299.899,385.249 299.011,384.816 C299.835,383.704 300.182,382.305 299.42,380.592 C298.436,378.38 295.498,382.542 295.498,382.542 C294.807,382.929 294.125,383.218 293.535,383.499 C290.361,382.744 287.267,381.67 284.274,380.366 L285.328,395.637 C287.838,396.382 290.143,396.934 291.957,397.291 C292.278,397.717 292.646,398.126 293.077,398.505 C300.241,404.804 302.853,400.601 299.801,398.022 C304.26,398.265 307.19,392.946 302.506,392.73 C302.172,392.715 301.846,392.688 301.527,392.656 C301.591,392.487 301.647,392.316 301.7,392.144 C303.766,392.055 305.677,391.401 305.448,389.223" id="Fill-113" fill="#131513"></path>
                <path d="M286.316,344.269 C276.518,351.105 267.69,360.568 262.652,371.445 C256.514,384.694 283.218,392.381 291.812,393.778 C300.539,395.196 304.282,381.862 295.49,380.432 C290.754,379.663 286.151,378.184 281.789,376.194 C279.786,375.28 277.854,374.221 275.981,373.067 C276.153,373.172 273.878,371.478 274.757,372.222 C273.569,371.217 275.159,372.896 275.241,373.379 C275.241,374.605 275.241,375.831 275.241,377.058 C276.288,371.98 282.702,365.805 286.517,362.05 C288.265,360.328 290.124,358.719 292.026,357.172 C293.286,356.148 291.29,357.698 292.726,356.633 C292.916,356.492 293.107,356.354 293.302,356.219 C300.563,351.152 293.656,339.148 286.316,344.269" id="Fill-114" fill="#202128"></path>
                <path d="M290.493,380.753 C291.062,379.976 292.496,379.59 293.953,378.773 C293.953,378.773 296.891,374.612 297.875,376.824 C298.902,379.132 297.919,380.871 296.464,382.105 C299.675,382.999 303.651,383.051 303.903,385.455 C304.384,390.031 295.42,387.885 295.42,387.885 C295.42,387.885 297.94,388.823 300.962,388.962 C305.646,389.178 302.716,394.497 298.256,394.254 C301.308,396.832 298.696,401.035 291.533,394.737 C288.787,392.323 288.412,388.822 288.448,386.059 C288.474,384.18 289.258,381.858 290.493,380.753" id="Fill-115" fill="#F1AC78"></path>
                <path d="M284.51,376.08 L282.989,367.733 C285.324,363.778 287.733,356.419 283.65,345.58 C283.363,344.816 283.744,343.96 284.498,343.647 L287.642,342.339 C288.445,342.004 289.357,342.412 289.666,343.226 C297.724,364.464 285.064,375.605 284.51,376.08" id="Fill-116" fill="#94885E"></path>
                <path d="M283.621,376.866 L282.988,367.68 C283.896,366.135 284.813,364.086 285.354,361.552 L291.67,362.9 C289.848,371.44 285.246,375.495 283.621,376.866" id="Fill-117" fill="#B3A672"></path>
                <polyline id="Fill-118" fill="#FFFFFE" points="299.564 341.867 312.506 373.895 321.962 340.638 299.564 341.867"></polyline>
                <path d="M322.107,344.247 L321.984,344.196 C314.792,341.207 306.631,341.656 299.81,345.416 L299.701,345.476 L303.264,354.229 L311.063,347.766 L319.523,353.337 L322.107,344.247" id="Fill-119" fill="#A59A95"></path>
                <polyline id="Fill-120" fill="#0E0D0C" points="314.432 367.091 312.496 373.898 309.848 367.341 310.754 341.255 314.432 367.091"></polyline>
                <path d="M311.205,350.542 L311.244,350.54 C312.379,350.478 313.337,349.676 313.599,348.571 L314.638,344.18 C315.031,342.513 313.712,340.936 312.002,341.03 L309.411,341.172 C307.701,341.266 306.563,342.978 307.137,344.592 L308.649,348.842 C309.03,349.913 310.07,350.605 311.205,350.542" id="Fill-121" fill="#0E0D0C"></path>
                <path d="M321.962,340.638 L321.839,340.587 C314.646,337.598 306.485,338.047 299.664,341.807 L299.555,341.867 L303.118,350.62 L310.954,344.822 L319.378,349.727 L321.962,340.638" id="Fill-122" fill="#FFFFFE"></path>
                <polyline id="Fill-123" fill="#2C2C37" points="312.496 373.898 321.85 338.595 330.123 341.697 325.599 348.483 322.471 349.907 324.051 354.138 312.496 373.898"></polyline>
                <polyline id="Fill-124" fill="#2C2C37" points="312.496 373.899 299.337 339.831 291.427 343.347 296.693 350.07 299.957 351.143 298.85 355.522 312.496 373.899"></polyline>
                <path d="M311.929,375.489 C312.541,386.8 313.154,398.112 313.767,409.423 C313.813,410.274 315.144,410.28 315.097,409.423 C314.484,398.112 313.871,386.8 313.259,375.489 C313.212,374.638 311.882,374.632 311.929,375.489" id="Fill-125" fill="#2C2C37"></path>
                <path d="M284.318,321.405 C284.318,321.405 265.884,290.396 284.344,281.963 C288.691,265.267 311.402,269.481 316.951,271.05 C322.5,272.619 325.79,269.771 325.79,269.771 C327.646,271.45 327.828,274.973 327.828,274.973 L332.118,269.362 C337.806,272.923 340.969,282.09 332.989,295.146 L284.318,321.405" id="Fill-126" fill="#663E26"></path>
                <path d="M316.182,338.956 C316.182,341.882 313.81,344.254 310.883,344.254 L309.559,344.254 C306.632,344.254 304.26,341.882 304.26,338.956 L304.26,329.967 C304.26,327.04 306.632,324.668 309.559,324.668 L310.883,324.668 C313.81,324.668 316.182,327.04 316.182,329.967 L316.182,338.956" id="Fill-127" fill="#EC965D"></path>
                <path d="M314.006,280.747 L298.944,281.966 C289.167,282.758 281.913,291.69 282.741,301.918 L283.098,306.322 L283.019,306.406 C282.71,306.387 282.398,306.382 282.082,306.408 L281.905,306.422 C278.057,306.734 275.2,310.251 275.525,314.278 L275.538,314.425 C275.863,318.449 279.246,321.458 283.093,321.147 L283.273,321.132 C283.598,321.106 283.911,321.05 284.219,320.978 L284.309,321.045 C285.472,330.861 293.849,338.099 303.35,337.33 L318.487,336.104 C328.264,335.313 335.519,326.38 334.69,316.153 L333.207,297.832 C332.379,287.605 323.782,279.956 314.006,280.747" id="Fill-128" fill="#FFCCA6"></path>
                <path d="M289.373,311.736 C288.668,303.021 285.96,292.204 293.159,285.657 C296.806,282.342 301.099,282.009 305.662,281.639 C309.378,281.339 313.089,280.97 316.81,280.737 C320.824,280.485 320.327,274.083 316.286,274.275 C312.212,274.468 308.155,274.933 304.09,275.262 C298.285,275.732 293.022,276.98 288.604,281.251 C283.688,286.003 281.618,292.747 282.178,299.656 C282.517,303.849 282.856,308.042 283.196,312.236 C283.533,316.403 289.711,315.903 289.373,311.736" id="Fill-129" fill="#663E26"></path>
                <path d="M306.385,309.154 C306.488,310.44 305.818,311.544 304.887,311.62 C303.956,311.695 303.116,310.714 303.013,309.427 C302.908,308.141 303.579,307.037 304.51,306.962 C305.441,306.886 306.28,307.868 306.385,309.154" id="Fill-130" fill="#131513"></path>
                <path d="M325.334,307.62 C325.438,308.906 324.768,310.01 323.837,310.086 C322.905,310.161 322.066,309.179 321.962,307.893 C321.857,306.607 322.528,305.503 323.459,305.428 C324.391,305.352 325.229,306.334 325.334,307.62" id="Fill-131" fill="#131513"></path>
                <path d="M327.031,299.153 C324.567,296.401 320.716,296.552 318.732,299.739 C318.284,300.46 319.422,301.122 319.869,300.403 C321.419,297.913 324.215,297.977 326.101,300.084 C326.666,300.716 327.595,299.783 327.031,299.153" id="Fill-132" fill="#663E26"></path>
                <path d="M300.938,302.071 C302.463,299.668 305.208,299.282 307.148,301.483 C307.709,302.119 308.637,301.185 308.078,300.552 C305.572,297.709 301.762,298.317 299.802,301.407 C299.347,302.124 300.485,302.785 300.938,302.071" id="Fill-133" fill="#663E26"></path>
                <path d="M331.397,275.485 C331.397,275.485 332.475,285.272 312.949,286.853 C293.423,288.434 286.179,287.962 287.628,305.854 C287.628,305.854 281.625,279.906 298.478,276.077 C315.331,272.249 322.115,280.091 331.397,275.485" id="Fill-134" fill="#663E26"></path>
                <path d="M308.722,322.651 C312.884,326.089 318.571,325.798 322.263,321.813 C322.767,321.269 321.952,320.451 321.447,320.997 C318.212,324.49 313.234,324.89 309.537,321.836 C308.969,321.366 308.148,322.178 308.722,322.651" id="Fill-135" fill="#D55E35"></path>
                <polyline id="Fill-136" fill="#87869B" points="547.42 533.47 549.567 524.468 545.273 516.56 547.42 533.47"></polyline>
                <polyline id="Fill-137" fill="#F4EEF2" points="549.57 524.47 518.27 579.5 506.91 574.63 482.82 564.29 426.9 555.57 463.23 495.01 504.71 495.01 504.269 510.65 511.23 496.49 544.5 509.9 549.57 524.47"></polyline>
                <polyline id="Fill-138" fill="#BBB4CB" points="549.57 524.47 518.27 579.5 506.91 574.63 544.5 509.9 549.57 524.47"></polyline>
                <polyline id="Fill-139" fill="#BBB4CB" points="469.724 560.472 504.706 495.014 508.096 503.196 477.192 563.413 469.724 560.472"></polyline>
                <path d="M458.833,452.406 L443.739,451.689 C433.942,451.223 425.604,459.154 425.117,469.403 L424.907,473.817 L424.818,473.89 C424.515,473.831 424.206,473.787 423.889,473.772 L423.712,473.763 C419.854,473.58 416.572,476.703 416.38,480.738 L416.373,480.886 C416.182,484.918 419.15,488.336 423.006,488.519 L423.188,488.528 C423.512,488.543 423.829,488.527 424.144,488.496 L424.225,488.574 C424.122,498.458 431.505,506.708 441.026,507.161 L456.196,507.882 C465.993,508.348 474.331,500.417 474.818,490.168 L475.691,471.808 C476.179,461.558 468.631,452.872 458.833,452.406" id="Fill-140" fill="#FFCCA6"></path>
                <path d="M430.876,480.803 C431.291,472.07 429.989,460.996 437.968,455.424 C442.008,452.602 446.309,452.821 450.881,453.038 C454.604,453.215 458.333,453.325 462.053,453.57 C466.066,453.833 466.393,447.42 462.36,447.093 C458.295,446.763 454.212,446.706 450.138,446.512 C444.32,446.236 438.941,446.8 434.014,450.47 C428.529,454.554 425.613,460.978 425.284,467.902 C425.085,472.104 424.885,476.306 424.686,480.509 C424.486,484.685 430.678,484.979 430.876,480.803" id="Fill-141" fill="#663E26"></path>
                <path d="M477.192,450.227 C477.192,450.227 477.009,460.071 457.441,459.141 C437.873,458.211 430.749,456.816 429.896,474.747 C429.896,474.747 427.264,448.244 444.468,446.603 C461.672,444.962 467.397,453.607 477.192,450.227" id="Fill-142" fill="#663E26"></path>
                <path d="M421.036,487.826 C416.938,475.741 413.084,457.27 425.479,452.349 C430.667,435.895 453.135,441.252 458.598,443.1 C464.061,444.947 467.489,442.269 467.489,442.269 C469.259,444.04 469.262,447.568 469.262,447.568 L473.83,442.181 C479.33,446.025 482.025,455.341 473.396,467.976 L471.275,478.591 L458.407,493.753 C455.014,497.752 449.951,499.941 444.713,499.676 L436.139,499.242 C429.239,498.892 423.256,494.368 421.036,487.826" id="Fill-143" fill="#663E26"></path>
                <path d="M474.903,483.096 C474.381,487.149 470.67,490.012 466.616,489.489 C462.563,488.966 459.7,485.256 460.224,481.202 C460.746,477.148 464.457,474.285 468.511,474.809 C472.564,475.331 475.427,479.042 474.903,483.096" id="Fill-144" fill="#F1AC78"></path>
                <path d="M565.389,592.807 L564.55,591.912 C561.188,588.322 555.552,588.138 551.963,591.5 L546.439,596.674 C545.162,597.871 543.155,597.805 541.958,596.528 L541.914,596.481 C540.717,595.203 538.711,595.137 537.433,596.334 L526.166,606.888 C524.888,608.085 524.822,610.092 526.02,611.37 L535.158,621.125 L545.424,611.509 L544.281,610.289 L547.989,609.106 L565.389,592.807" id="Fill-145" fill="#58281F"></path>
                <path d="M543.877,597.405 L508.51,561.873 C506.259,559.611 503.199,558.34 500.008,558.34 L449.747,558.34 L449.747,580.928 L493.138,580.928 C494.622,580.928 496.046,581.517 497.095,582.567 L527.905,613.376 L543.877,597.405" id="Fill-146" fill="#202128"></path>
                <path d="M473.1,569.808 C473.1,575.923 468.143,580.879 462.027,580.879 L436.612,580.879 C430.498,580.879 425.541,575.923 425.541,569.808 L425.541,566.643 C425.541,560.529 430.498,555.572 436.612,555.572 L462.027,555.572 C468.143,555.572 473.1,560.529 473.1,566.643 L473.1,569.808" id="Fill-147" fill="#131513"></path>
                <polyline id="Fill-148" fill="#131513" points="453.857 575.811 492.19 580.88 453.526 580.413 453.857 575.811"></polyline>
                <path d="M419.873,506.389 C421.829,495.088 467.006,497.922 470.764,509.747 C476.159,526.723 478.07,569.423 478.07,569.423 C478.07,569.423 451.335,580.88 422.721,572.812 C422.721,572.812 418.509,514.273 419.873,506.389" id="Fill-149" fill="#202128"></path>
                <path d="M526.131,502.496 L511.23,496.49 L510.621,497.729 C509.458,496.479 508.48,495.024 507.753,493.392 C504.23,485.486 507.877,475.933 515.728,472.331 C517.881,471.343 520.104,470.882 522.284,470.882 C528.367,470.882 534.108,474.473 536.996,480.219 C537.041,480.308 537.078,480.398 537.107,480.486 C537.13,480.533 537.151,480.582 537.171,480.632 C540.335,488.771 536.936,498.175 528.694,501.661 C527.853,502.017 526.996,502.294 526.131,502.496 M522.372,474.358 C520.702,474.358 518.986,474.71 517.295,475.465 C510.98,478.285 508.168,485.748 510.975,492.032 C513.058,496.696 517.733,499.464 522.544,499.463 C524.6,499.463 526.682,498.958 528.596,497.879 C534.436,494.587 536.142,487.824 533.936,481.823 C531.584,477.262 527.169,474.358 522.372,474.358" id="Fill-153" fill="#898B8D"></path>
                <path d="M522.529,502.91 C518.049,502.909 513.688,501.027 510.621,497.729 L511.23,496.49 L526.131,502.496 C524.937,502.775 523.729,502.91 522.529,502.91" id="Fill-154" fill="#84828D"></path>
                <path d="M533.834,481.552 C536.193,487.619 534.524,494.537 528.596,497.879 C522.203,501.482 513.948,498.69 510.975,492.032 C508.168,485.748 510.98,478.285 517.295,475.465 C523.898,472.516 530.871,475.723 534.009,481.965 C535.009,483.955 537.995,482.205 536.996,480.219 C533.073,472.415 523.89,468.586 515.729,472.331 C507.877,475.933 504.23,485.486 507.753,493.392 C511.282,501.314 520.7,505.043 528.694,501.661 C536.937,498.175 540.335,488.771 537.171,480.632 C536.372,478.579 533.025,479.472 533.834,481.552" id="Fill-155" fill="#4B485C"></path>
                <path d="M532.437,480.679 C534.795,486.745 533.127,493.664 527.197,497.006 C520.805,500.609 512.55,497.816 509.577,491.159 C506.771,484.875 509.583,477.412 515.896,474.592 C522.501,471.643 529.473,474.85 532.61,481.092 C533.611,483.082 536.597,481.332 535.599,479.346 C531.675,471.542 522.491,467.713 514.33,471.457 C506.479,475.06 502.833,484.613 506.355,492.519 C509.885,500.44 519.302,504.169 527.297,500.788 C535.538,497.302 538.938,487.898 535.772,479.759 C534.975,477.706 531.628,478.599 532.437,480.679" id="Fill-156" fill="#6E697E"></path>
                <path d="M514.447,500.648 C512.537,506.87 510.627,513.091 508.717,519.313 C508.062,521.447 511.4,522.359 512.053,520.233 C513.963,514.011 515.873,507.789 517.783,501.568 C518.438,499.434 515.1,498.522 514.447,500.648" id="Fill-157" fill="#6E697E"></path>
                <path d="M508.453,523.004 C508.453,523.004 520.182,524.368 520.999,516.186 C520.999,516.186 526.454,508.687 520.999,507.254 C515.545,505.821 509.271,504.05 508.453,507.254 L502.524,520.549 L508.453,523.004" id="Fill-158" fill="#F1AC78"></path>
                <path d="M456.702,520.797 C464.447,528.849 472.794,537.064 482.214,543.132 C488.746,547.34 495.876,548.681 502.097,543.092 C506.436,539.194 509.772,533.751 512.673,528.717 C518.611,518.409 502.673,509.105 496.739,519.403 C494.692,522.956 492.405,526.119 490.289,528.833 C489.626,529.683 489.608,529.428 489.692,529.537 C489.377,529.126 494.389,528.82 494.646,528.845 C492.723,528.656 494.975,529.262 493.939,528.628 C492.044,527.47 489.578,525.915 488.265,524.898 C482.176,520.187 475.5,513.727 469.75,507.749 C461.502,499.174 448.464,512.232 456.702,520.797" id="Fill-159" fill="#202128"></path>
                <path d="M416.693,513.107 C419.926,525.285 423.158,537.463 426.391,549.641 C429.435,561.108 447.239,556.244 444.185,544.735 C440.952,532.557 437.72,520.38 434.487,508.202 C431.443,496.735 413.639,501.599 416.693,513.107" id="Fill-160" fill="#202128"></path>
                <path d="M511.702,477.812 C513.018,476.332 514.542,475.223 516.342,474.398 C517.191,474.009 517.401,472.781 516.963,472.031 C516.452,471.159 515.448,471.02 514.596,471.411 C512.562,472.344 510.742,473.693 509.256,475.366 C507.781,477.025 510.22,479.481 511.702,477.812" id="Fill-161" fill="#9A97AF"></path>
                <path d="M651.871,284.466 L652.171,283.276 C653.371,278.506 650.479,273.667 645.709,272.466 L638.37,270.618 C636.672,270.19 635.643,268.467 636.069,266.769 L636.085,266.707 C636.513,265.009 635.482,263.286 633.785,262.858 L618.814,259.089 C617.116,258.661 615.393,259.691 614.966,261.389 L612.558,270.952 C612.085,272.83 613.225,274.735 615.103,275.208 L625.343,277.786 L625.75,276.166 L628.752,278.645 L651.871,284.466" id="Fill-162" fill="#58281F"></path>
                <path d="M551.617,176.222 C552.656,175.986 554.134,176.705 555.943,177.082 C555.943,177.082 561.42,175.741 560.635,178.304 C559.816,180.977 557.732,181.715 555.62,181.688 C557.652,184.767 560.935,187.7 559.398,189.89 C556.476,194.06 550.549,185.756 550.549,185.756 C550.549,185.756 551.973,188.37 554.395,190.681 C558.148,194.264 551.838,196.577 548.291,193.135 C548.966,197.505 543.732,199.117 542.326,188.654 C541.787,184.643 544.018,181.447 546.056,179.167 C547.441,177.616 549.782,176.247 551.617,176.222" id="Fill-163" fill="#F1AC78"></path>
                <path d="M644.344,35.439 C645.895,42.592 640.936,44.714 635.732,44.714 C630.529,44.714 626.312,40.836 626.312,36.051 C626.312,31.267 630.529,27.389 635.732,27.389 C640.936,27.389 643.33,30.764 644.344,35.439" id="Fill-164" fill="#EC965D"></path>
                <path d="M641.358,28.205 C641.358,31.052 639.688,33.36 637.629,33.36 C635.57,33.36 633.9,31.052 633.9,28.205 C633.9,25.358 635.57,23.049 637.629,23.049 C639.688,23.049 641.358,25.358 641.358,28.205" id="Fill-165" fill="#F1AC78"></path>
                <path d="M630.077,40.414 C625.463,36.568 627.771,23.836 633.538,23.088 C639.307,22.34 637.654,32.65 633.538,33.107 C630.077,33.492 630.847,28.493 630.847,28.493" id="Fill-166" fill="#F1AC78"></path>
                <path d="M628.844,26.993 C622.995,28.576 625.816,44.882 633.831,44.713 C641.846,44.544 639.373,29.695 631.919,34.46 C631.919,34.46 631.679,26.226 628.844,26.993" id="Fill-167" fill="#F1AC78"></path>
                <path d="M644.558,30.664 C643.72,33.107 641.608,34.595 639.842,33.99 C638.075,33.384 637.321,30.913 638.159,28.47 C638.997,26.028 641.108,24.539 642.875,25.145 C644.642,25.75 645.395,28.222 644.558,30.664" id="Fill-168" fill="#F1AC78"></path>
                <path d="M647.04,32.156 C646.334,34.215 644.555,35.47 643.065,34.959 C641.575,34.448 640.94,32.365 641.646,30.306 C642.353,28.247 644.133,26.992 645.622,27.503 C647.111,28.013 647.746,30.097 647.04,32.156" id="Fill-169" fill="#F1AC78"></path>
                <polyline id="Fill-170" fill="#FFFFFE" points="639.975 51.174 624.169 45.914 626.482 38.833 642.288 44.093 639.975 51.174"></polyline>
                <polyline id="Fill-171" fill="#FFFFFE" points="549.567 170.432 537.165 178.799 541.331 184.975 553.733 176.608 549.567 170.432"></polyline>
                <path d="M537.618,182.516 C536.758,181.337 516.728,153.388 531.782,130.816 C547.395,107.408 589.686,116.909 612.949,132.425 L603.366,142.581 C577.26,139.548 580.752,136.58 569.4,135.248 C564.152,134.632 551.448,133.946 546.839,140.858 C538.925,152.723 552.118,171.682 552.254,171.87 L537.618,182.516" id="Fill-172" fill="#202128"></path>
                <path d="M603.603,130.753 L633.593,44.697" id="Stroke-173" stroke="#202128" stroke-width="18.453" fill="#D8D8D8"></path>
                <path d="M560.733,292.437 C560.733,292.437 558.682,300.116 569.885,311.552 C580.029,321.907 583.345,313.742 582.797,309.64 C581.986,303.572 578.109,296.714 578.339,295.18 C578.339,295.18 580.197,292.536 579.757,290.773 C576.109,276.183 566.547,274.507 561.6,277.072 C555.845,280.055 555.867,286.597 560.733,292.437" id="Fill-175" fill="#58281F"></path>
                <path d="M561.351,194.518 C561.278,194.346 561.261,194.308 561.351,194.518" id="Fill-176" fill="#202128"></path>
                <path d="M644.228,219.601 C643.834,215.154 641.864,212.014 639.15,208.619 C631.36,198.872 621.157,190.683 611.51,182.79 C609.49,180.631 606.623,179.275 603.433,179.275 L572.516,179.275 C567.049,179.275 562.52,183.24 561.617,188.448 C560.938,190.538 561.03,192.875 561.726,195.146 C561.768,195.293 561.813,195.439 561.864,195.581 C561.991,195.952 562.129,196.321 562.287,196.686 C561.74,195.427 561.462,194.779 561.351,194.518 C561.476,194.814 561.764,195.509 561.949,196.016 C562.468,197.433 562.915,198.875 563.34,200.323 C564.002,202.584 564.552,204.878 565.051,207.181 C565.395,208.764 565.688,210.357 565.965,211.953 C566.118,212.834 566.252,213.719 566.387,214.604 C566.413,214.775 566.434,214.913 566.453,215.036 C566.473,215.211 566.502,215.462 566.548,215.832 C569.142,237.05 566.565,258.453 561.016,278.997 C557.752,291.077 576.444,296.197 579.699,284.148 C585.681,262.005 588.548,238.706 585.923,215.832 C585.409,211.361 584.745,206.885 583.818,202.473 L604.979,202.473 C611.32,207.865 617.506,213.484 623.112,219.579 C623.62,220.132 624.109,220.7 624.597,221.27 L624.689,221.378 C624.736,222.048 624.801,222.919 624.748,223.477 C624.738,223.58 624.731,223.653 624.724,223.736 C624.694,223.906 624.653,224.146 624.598,224.5 C624.436,225.531 624.241,226.558 624.049,227.584 C622.388,236.472 620.087,245.305 617.453,253.953 C613.803,265.938 632.507,271.021 636.136,259.104 C638.877,250.104 641.202,240.925 642.93,231.677 C643.656,227.793 644.579,223.575 644.228,219.601" id="Fill-177" fill="#202128"></path>
                <path d="M587.473,115.782 C557.199,115.782 560.955,131.097 560.955,131.097 L560.955,190.796 C573.931,197.433 604.525,198.465 613.743,186.182 L613.743,126.546 C613.743,126.546 617.746,115.782 587.473,115.782" id="Fill-178" fill="#202128"></path>
                <polyline id="Fill-179" fill="#FFFFFE" points="574.481 118.971 593.966 151.245 601.533 118.971 574.481 118.971"></polyline>
                <path d="M602.135,122.537 L601.979,122.48 C592.895,119.144 583.037,119.146 575.197,122.484 L575.072,122.537 L580.429,131.358 L589.139,125.409 L600.066,131.358 L602.135,122.537" id="Fill-180" fill="#A59A95"></path>
                <polyline id="Fill-181" fill="#0E0D0C" points="595.504 144.642 593.955 151.248 589.966 144.641 587.996 118.973 595.504 144.642"></polyline>
                <path d="M589.638,128.153 L589.685,128.153 C591.055,128.153 592.124,127.415 592.312,126.339 L593.056,122.067 C593.339,120.445 591.551,118.818 589.485,118.818 L586.356,118.818 C584.291,118.818 583.109,120.445 583.997,122.067 L586.334,126.339 C586.923,127.415 588.268,128.153 589.638,128.153" id="Fill-182" fill="#0E0D0C"></path>
                <path d="M601.533,118.971 L601.378,118.914 C592.293,115.578 582.436,115.58 574.596,118.917 L574.47,118.971 L579.827,127.792 L588.66,122.501 L599.465,127.792 L601.533,118.971" id="Fill-183" fill="#FFFFFE"></path>
                <polyline id="Fill-184" fill="#2C2C37" points="593.955 151.248 601.157 116.951 611.567 120.457 606.872 126.902 603.242 128.136 605.659 132.393 593.955 151.248"></polyline>
                <polyline id="Fill-185" fill="#2C2C37" points="593.955 151.249 573.966 116.952 564.774 119.99 571.961 126.903 576.051 128.137 575.221 132.394 593.955 151.249"></polyline>
                <path d="M561.412,102.327 C561.412,102.327 542.978,71.318 561.437,62.885 C565.784,46.189 588.495,50.403 594.044,51.972 C599.593,53.541 602.883,50.692 602.883,50.692 C604.739,52.371 604.921,55.895 604.921,55.895 L609.211,50.284 C614.898,53.844 618.062,63.012 610.083,76.068 L561.412,102.327" id="Fill-186" fill="#663E26"></path>
                <path d="M593.274,116.877 C593.274,119.803 590.902,122.176 587.976,122.176 L586.651,122.176 C583.725,122.176 581.353,119.803 581.353,116.877 L581.353,107.888 C581.353,104.962 583.725,102.59 586.651,102.59 L587.976,102.59 C590.902,102.59 593.274,104.962 593.274,107.888 L593.274,116.877" id="Fill-187" fill="#EC965D"></path>
                <path d="M591.099,61.669 L576.037,62.888 C566.261,63.68 559.006,72.612 559.834,82.84 L560.19,87.244 L560.111,87.328 C559.803,87.309 559.491,87.304 559.175,87.33 L558.999,87.344 C555.149,87.656 552.293,91.173 552.619,95.2 L552.631,95.347 C552.957,99.371 556.339,102.38 560.186,102.069 L560.367,102.054 C560.69,102.028 561.004,101.971 561.312,101.9 L561.401,101.967 C562.564,111.783 570.941,119.021 580.443,118.252 L595.58,117.026 C605.357,116.235 612.611,107.302 611.783,97.075 L610.3,78.754 C609.472,68.526 600.875,60.877 591.099,61.669" id="Fill-188" fill="#FFCCA6"></path>
                <path d="M566.467,92.657 C565.761,83.943 563.054,73.126 570.253,66.579 C573.898,63.264 578.192,62.931 582.755,62.561 C586.471,62.26 590.182,61.892 593.902,61.659 C597.917,61.407 597.42,55.005 593.38,55.197 C589.305,55.39 585.248,55.855 581.183,56.184 C575.378,56.654 570.116,57.902 565.697,62.172 C560.781,66.924 558.711,73.669 559.271,80.578 C559.61,84.771 559.949,88.964 560.289,93.158 C560.627,97.325 566.804,96.825 566.467,92.657" id="Fill-189" fill="#663E26"></path>
                <path d="M583.478,90.076 C583.582,91.362 582.911,92.466 581.98,92.542 C581.049,92.617 580.21,91.635 580.105,90.349 C580.002,89.063 580.672,87.959 581.603,87.884 C582.534,87.808 583.373,88.79 583.478,90.076" id="Fill-190" fill="#131513"></path>
                <path d="M602.427,88.542 C602.531,89.828 601.86,90.932 600.93,91.007 C599.998,91.083 599.159,90.101 599.055,88.815 C598.951,87.529 599.621,86.425 600.553,86.35 C601.483,86.274 602.323,87.256 602.427,88.542" id="Fill-191" fill="#131513"></path>
                <path d="M604.124,80.075 C601.66,77.323 597.809,77.474 595.825,80.661 C595.377,81.382 596.515,82.043 596.962,81.325 C598.512,78.835 601.308,78.899 603.193,81.005 C603.76,81.638 604.688,80.704 604.124,80.075" id="Fill-192" fill="#663E26"></path>
                <path d="M578.031,82.993 C579.556,80.589 582.301,80.204 584.241,82.404 C584.802,83.041 585.729,82.107 585.172,81.474 C582.666,78.631 578.854,79.239 576.895,82.329 C576.44,83.046 577.578,83.707 578.031,82.993" id="Fill-193" fill="#663E26"></path>
                <path d="M608.491,56.406 C608.491,56.406 609.568,66.194 590.042,67.775 C570.516,69.355 563.271,68.884 564.721,86.776 C564.721,86.776 558.719,60.828 575.571,56.999 C592.424,53.17 599.208,61.012 608.491,56.406" id="Fill-194" fill="#663E26"></path>
                <path d="M583.321,101.47 C583.718,106.361 588.004,110.005 592.896,109.609 C597.786,109.213 601.431,104.927 601.034,100.036 L583.321,101.47" id="Fill-195" fill="#FFFFFE"></path>
                <path d="M591.104,12.481 C591.104,9.406 591.104,6.331 591.104,3.255 C591.104,0.038 586.104,0.033 586.104,3.255 C586.104,6.331 586.104,9.406 586.104,12.481 C586.104,15.698 591.104,15.704 591.104,12.481" id="Fill-196" fill="#FADA56"></path>
                <path d="M591.104,35.624 C591.104,34.762 591.104,33.9 591.104,33.037 C591.104,31.73 589.953,30.477 588.604,30.537 C587.249,30.598 586.104,31.636 586.104,33.037 C586.104,33.9 586.104,34.762 586.104,35.624 C586.104,36.932 587.253,38.185 588.604,38.124 C589.958,38.064 591.104,37.026 591.104,35.624" id="Fill-197" fill="#FADA56"></path>
                <path d="M669.506,48.395 C672.723,48.395 672.729,43.395 669.506,43.395 C666.288,43.395 666.283,48.395 669.506,48.395" id="Fill-198" fill="#FADA56"></path>
                <path d="M655.498,62.401 C658.716,62.401 658.721,57.401 655.498,57.401 C652.281,57.401 652.275,62.401 655.498,62.401" id="Fill-199" fill="#FADA56"></path>
                <path d="M649.243,69.693 C651.917,67.018 654.592,64.344 657.267,61.669 C659.544,59.391 656.01,55.855 653.73,58.134 C651.057,60.808 648.382,63.483 645.707,66.157 C643.429,68.435 646.964,71.972 649.243,69.693" id="Fill-200" fill="#FADA56"></path>
                <path d="M505.934,48.093 C508.839,50.999 511.745,53.904 514.65,56.81 C516.929,59.088 520.465,55.553 518.187,53.274 C515.28,50.369 512.375,47.463 509.469,44.557 C507.191,42.279 503.654,45.814 505.934,48.093" id="Fill-201" fill="#FADA56"></path>
                <path d="M698.007,131.169 C700.442,131.169 702.879,131.169 705.314,131.169 C708.531,131.169 708.537,126.169 705.314,126.169 C702.879,126.169 700.442,126.169 698.007,126.169 C694.79,126.169 694.784,131.169 698.007,131.169" id="Fill-202" fill="#FADA56"></path>
                <path d="M698.007,131.169 C701.225,131.169 701.229,126.169 698.007,126.169 C694.79,126.169 694.784,131.169 698.007,131.169" id="Fill-203" fill="#FADA56"></path>
                <path d="M674.63,131.169 C677.847,131.169 677.853,126.169 674.63,126.169 C671.412,126.169 671.407,131.169 674.63,131.169" id="Fill-204" fill="#FADA56"></path>
                <path d="M659.715,131.169 C664.687,131.169 669.658,131.169 674.63,131.169 C677.847,131.169 677.853,126.169 674.63,126.169 C669.658,126.169 664.687,126.169 659.715,126.169 C656.498,126.169 656.492,131.169 659.715,131.169" id="Fill-205" fill="#FADA56"></path>
                <path d="M632.568,174.999 C636.948,179.379 641.328,183.758 645.707,188.138 C647.985,190.416 651.521,186.881 649.243,184.602 C644.863,180.223 640.483,175.843 636.104,171.464 C633.826,169.186 630.29,172.72 632.568,174.999" id="Fill-206" fill="#FADA56"></path>
                <path d="M476.137,126.169 C471.778,126.169 467.42,126.169 463.063,126.169 C459.845,126.169 459.84,131.169 463.063,131.169 C467.42,131.169 471.778,131.169 476.137,131.169 C479.354,131.169 479.358,126.169 476.137,126.169" id="Fill-207" fill="#FADA56"></path>
                <path d="M516.937,196.8 C513.27,200.467 509.602,204.135 505.934,207.803 C503.655,210.081 507.19,213.618 509.469,211.339 C513.137,207.671 516.805,204.003 520.473,200.335 C522.751,198.057 519.216,194.52 516.937,196.8" id="Fill-208" fill="#FADA56"></path>
                <path d="M499.21,126.169 C498.186,126.169 497.161,126.169 496.137,126.169 C494.828,126.169 493.576,127.318 493.637,128.669 C493.697,130.023 494.734,131.169 496.137,131.169 C497.161,131.169 498.186,131.169 499.21,131.169 C500.518,131.169 501.771,130.019 501.71,128.669 C501.649,127.314 500.612,126.169 499.21,126.169" id="Fill-209" fill="#FADA56"></path>
                <path d="M655.011,797.42 L575.87,797.42 C569.541,797.42 564.41,792.289 564.41,785.96 L564.41,345.602 C564.41,339.273 569.541,334.142 575.87,334.142 L655.011,334.142 C661.34,334.142 666.471,339.273 666.471,345.602 L666.471,785.96 C666.471,792.289 661.34,797.42 655.011,797.42" id="Fill-210" fill="#9BA23B"></path>
                <path d="M638.525,797.42 L559.386,797.42 C553.056,797.42 547.925,792.289 547.925,785.96 L547.925,345.602 C547.925,339.273 553.056,334.142 559.386,334.142 L638.525,334.142 C644.855,334.142 649.986,339.273 649.986,345.602 L649.986,785.96 C649.986,792.289 644.855,797.42 638.525,797.42" id="Fill-211" fill="#B7C937"></path>
            </g>
        </g>
    </g>
</svg>